# xmcd
#
# Track frame offsets:
#	150
#	17385
#	30259
#	39357
#	61292
#	77385
#	87891
#	99856
#	109464
#	124469
#	142388
#
# Disc length: 2055 seconds
# Revision: 0
# Processed by: cddbd v1.5.2PL0 Copyright (c) Steve Scherf et al.
# Submitted via: dBpowerAMP V12.0
#
DISCID=8308050b
DTITLE=Colter Wall - Songs Of The Plains
DYEAR=2018
DGENRE=Country
TTITLE0=Plain to See Plainsman
TTITLE1=Saskatchewan In 1881
TTITLE2=John Beyers (Camaro Song)
TTITLE3=Wild Dogs
TTITLE4=Calgary Round-Up
TTITLE5=Night Herding Song
TTITLE6=Wild Bill Hickok
TTITLE7=The Trains Are Gone
TTITLE8=Thinkin' on a Woman
TTITLE9=Manitoba Man
TTITLE10=Tying Knots in the Devil's Tail
EXTD=
EXTT0=
EXTT1=
EXTT2=
EXTT3=
EXTT4=
EXTT5=
EXTT6=
EXTT7=
EXTT8=
EXTT9=
EXTT10=
PLAYORDER=
